<svg width="20" height="20" viewBox="0 0 20 20" fill="none" xmlns="http://www.w3.org/2000/svg">
<path d="M10.0002 2.08334C7.24308 2.08334 5.00016 4.32626 5.00016 7.08334C5.00016 9.08543 7.47534 12.5751 8.95117 14.4767C9.2045 14.8034 9.58724 14.9911 10.0002 14.9911C10.4131 14.9911 10.7958 14.8034 11.0492 14.4767C12.525 12.5751 15.0002 9.08543 15.0002 7.08334C15.0002 4.32626 12.7572 2.08334 10.0002 2.08334ZM10.0002 5.83334C10.6906 5.83334 11.2502 6.39293 11.2502 7.08334C11.2502 7.77376 10.6906 8.33334 10.0002 8.33334C9.30974 8.33334 8.75016 7.77376 8.75016 7.08334C8.75016 6.39293 9.30974 5.83334 10.0002 5.83334ZM4.88541 12.5C4.30958 12.5 3.78574 12.8401 3.55241 13.3659L2.62711 15.4492C2.42586 15.9021 2.46616 16.4205 2.73616 16.8359C3.00658 17.2518 3.46389 17.5 3.95931 17.5H16.0402C16.5356 17.5 16.9933 17.2518 17.2633 16.8359C17.5338 16.4205 17.5745 15.9026 17.3732 15.4492L16.4479 13.3659C16.2142 12.8401 15.6912 12.5 15.1149 12.5H13.7583C13.4929 12.9021 13.2049 13.3183 12.894 13.75H15.1149C15.197 13.75 15.272 13.7983 15.3053 13.8737L16.2306 15.957C16.2706 16.047 16.2385 16.1202 16.2152 16.1556C16.1918 16.191 16.1393 16.25 16.041 16.25H3.95931C3.86097 16.25 3.80726 16.1902 3.78434 16.1548C3.76142 16.1194 3.72929 16.047 3.76888 15.957L4.69498 13.8737C4.72832 13.7987 4.80333 13.75 4.88541 13.75H7.10547C6.79422 13.3183 6.50702 12.9021 6.24202 12.5H4.88541Z" fill="black"/>
</svg>
