<svg width="48" height="48" viewBox="0 0 48 48" fill="none" xmlns="http://www.w3.org/2000/svg">
<circle cx="24" cy="24" r="24" fill="black" fill-opacity="0.12"/>
<path d="M24.0001 8.49219C15.4501 8.49219 8.49243 15.4499 8.49243 23.9999C8.49243 32.5499 15.4501 39.5076 24.0001 39.5076C32.5501 39.5076 39.5078 32.5499 39.5078 23.9999C39.5078 23.5095 39.4703 23.0335 39.4386 22.673C39.4184 22.4133 39.2626 22.1883 39.0319 22.073C38.8011 21.9576 38.5242 21.972 38.3078 22.1105C37.8867 22.3816 37.4078 22.523 36.9232 22.523C35.8617 22.523 34.9213 21.8826 34.5261 20.8931C34.4482 20.697 34.2895 20.5412 34.0934 20.4691C33.8944 20.3999 33.6751 20.4143 33.4876 20.5153C32.8472 20.8614 32.1203 21.046 31.3847 21.046C28.9415 21.046 26.954 19.0585 26.954 16.6153C26.954 15.8826 27.1386 15.1528 27.4847 14.5124C27.5857 14.3249 27.603 14.1056 27.5309 13.9066C27.4588 13.7105 27.3059 13.5518 27.1097 13.4739C26.1174 13.0787 25.477 12.1383 25.477 11.0768C25.477 10.5922 25.6184 10.1133 25.8895 9.69219C26.028 9.47296 26.0424 9.19892 25.927 8.96815C25.8117 8.73738 25.5838 8.58161 25.327 8.55853C24.9376 8.52392 24.4761 8.49219 24.0001 8.49219ZM21.4155 16.6153C22.027 16.6153 22.5232 17.1114 22.5232 17.723C22.5232 18.3345 22.027 18.8306 21.4155 18.8306C20.804 18.8306 20.3078 18.3345 20.3078 17.723C20.3078 17.1114 20.804 16.6153 21.4155 16.6153ZM16.6155 20.3076C17.8386 20.3076 18.8309 21.2999 18.8309 22.523C18.8309 23.746 17.8386 24.7383 16.6155 24.7383C15.3924 24.7383 14.4001 23.746 14.4001 22.523C14.4001 21.2999 15.3924 20.3076 16.6155 20.3076ZM23.6309 23.2614C24.2424 23.2614 24.7386 23.7576 24.7386 24.3691C24.7386 24.9806 24.2424 25.4768 23.6309 25.4768C23.0194 25.4768 22.5232 24.9806 22.5232 24.3691C22.5232 23.7576 23.0194 23.2614 23.6309 23.2614ZM18.0924 28.4306C18.9088 28.4306 19.5694 29.0912 19.5694 29.9076C19.5694 30.7239 18.9088 31.3845 18.0924 31.3845C17.2761 31.3845 16.6155 30.7239 16.6155 29.9076C16.6155 29.0912 17.2761 28.4306 18.0924 28.4306ZM28.0617 29.1691C29.0828 29.1691 29.9078 29.9941 29.9078 31.0153C29.9078 32.0364 29.0828 32.8614 28.0617 32.8614C27.0405 32.8614 26.2155 32.0364 26.2155 31.0153C26.2155 29.9941 27.0405 29.1691 28.0617 29.1691Z" fill="black"/>
</svg>
