<svg width="20" height="20" viewBox="0 0 20 20" fill="none" xmlns="http://www.w3.org/2000/svg">
<path d="M9.99984 1.66667C5.40737 1.66667 1.6665 5.40754 1.6665 10C1.6665 14.5925 5.40737 18.3333 9.99984 18.3333C11.0282 18.3333 12.0166 18.1463 12.9279 17.8044C13.0325 17.7676 13.1288 17.7102 13.211 17.6358C13.2932 17.5613 13.3597 17.4711 13.4066 17.3706C13.4535 17.2701 13.4798 17.1612 13.4841 17.0504C13.4884 16.9396 13.4705 16.829 13.4315 16.7251C13.3925 16.6213 13.3332 16.5263 13.257 16.4457C13.1808 16.3651 13.0893 16.3005 12.9878 16.2557C12.8863 16.2109 12.7769 16.1868 12.666 16.1849C12.5551 16.1829 12.445 16.2031 12.342 16.2443C11.6141 16.5174 10.8265 16.6667 9.99984 16.6667C6.30813 16.6667 3.33317 13.6917 3.33317 10C3.33317 6.3083 6.30813 3.33334 9.99984 3.33334C13.6915 3.33334 16.6665 6.3083 16.6665 10V10.8333C16.6665 11.7639 15.9304 12.5 14.9998 12.5C14.0693 12.5 13.3332 11.7639 13.3332 10.8333V10V6.66667C13.3348 6.45525 13.2561 6.2511 13.1128 6.09557C12.9696 5.94005 12.7726 5.84477 12.5618 5.82905C12.3509 5.81332 12.142 5.87832 11.9773 6.01088C11.8125 6.14344 11.7044 6.33364 11.6746 6.54297C11.083 6.09804 10.3678 5.83334 9.58317 5.83334C7.45829 5.83334 5.83317 7.76661 5.83317 10C5.83317 12.2334 7.45829 14.1667 9.58317 14.1667C10.6898 14.1667 11.6581 13.6395 12.3346 12.8215C12.9444 13.6349 13.9127 14.1667 14.9998 14.1667C16.8309 14.1667 18.3332 12.6645 18.3332 10.8333V10C18.3332 5.40754 14.5923 1.66667 9.99984 1.66667ZM9.58317 7.50001C10.675 7.50001 11.6665 8.55756 11.6665 10C11.6665 11.4424 10.675 12.5 9.58317 12.5C8.49139 12.5 7.49984 11.4424 7.49984 10C7.49984 8.55756 8.49139 7.50001 9.58317 7.50001Z" fill="black"/>
</svg>
