<svg width="53" height="53" viewBox="0 0 53 53" fill="none" xmlns="http://www.w3.org/2000/svg">
<circle cx="11.7357" cy="21.7506" r="8.39757" fill="#D3FF26"/>
<circle cx="11.7355" cy="21.7504" r="1.86613" fill="black"/>
<circle cx="40.6661" cy="21.7506" r="8.39757" fill="#D3FF26"/>
<circle cx="40.6669" cy="21.7504" r="1.86613" fill="black"/>
<path d="M51.3166 17.8353H51.455L46.2463 7.97003C45.343 6.40548 43.9223 5.20468 42.2293 4.57516C41.4522 2.74379 39.9799 1.29574 38.1362 0.548958C36.2921 -0.197492 34.2275 -0.181528 32.3953 0.593128C30.563 1.36815 29.1134 2.83842 28.3645 4.68166C26.91 3.95007 25.1951 3.95007 23.741 4.68166C22.988 2.82616 21.5247 1.34884 19.6773 0.57821C17.8295 -0.192737 15.7501 -0.192737 13.9026 0.57821C12.0548 1.34879 10.5914 2.82606 9.83889 4.68166C8.24049 5.33643 6.90706 6.50714 6.05047 8.00745L1.99109 15.4144C-0.0170774 18.3879 -0.539618 22.1228 0.575958 25.5333C1.69153 28.9438 4.31944 31.6478 7.69667 32.8594C11.0739 34.0709 14.8211 33.6541 17.8501 31.7302C20.8785 29.8064 22.8487 26.5912 23.188 23.0185C23.224 22.6526 23.2418 22.2851 23.2411 21.9172C23.2422 21.1363 23.1654 20.3575 23.0121 19.5918C22.9093 19.1137 22.776 18.6426 22.6131 18.1816C23.031 17.3231 23.7569 16.6535 24.6461 16.3057C25.5353 15.9579 26.5225 15.9579 27.4117 16.3057C28.3009 16.6535 29.0268 17.3231 29.4446 18.1816C29.2817 18.6445 29.1485 19.1174 29.0457 19.597C28.8924 20.3627 28.8156 21.1419 28.8167 21.9225C28.8171 22.2781 28.8349 22.6333 28.8698 22.9866C29.1752 26.3265 30.908 29.3717 33.6235 31.3397C36.3386 33.3073 39.7715 34.0062 43.0399 33.2561C46.3084 32.5063 49.0933 30.3805 50.6791 27.4256C52.2652 24.471 52.4976 20.9748 51.3167 17.8359L51.3166 17.8353ZM11.6158 29.7121C9.68042 29.7055 7.81704 28.9787 6.38785 27.6732C4.95865 26.3682 4.06606 24.578 3.88355 22.6508C3.70132 20.7237 4.24242 18.7979 5.40148 17.2479C6.56085 15.6976 8.25503 14.6344 10.1548 14.2647C12.0542 13.8946 14.0238 14.245 15.6793 15.2476C17.3349 16.2498 18.5589 17.8321 19.1122 19.687C19.3326 20.4097 19.4436 21.1613 19.4421 21.9167C19.4366 23.9879 18.6089 25.9722 17.1415 27.4339C15.6741 28.8956 13.6868 29.7152 11.6159 29.7122L11.6158 29.7121ZM40.442 29.7121C38.3719 29.7136 36.386 28.8937 34.9197 27.432C33.4534 25.9706 32.6265 23.987 32.621 21.9166C32.6173 21.1579 32.7268 20.4029 32.9457 19.6761C33.436 18.0689 34.4287 16.6611 35.7778 15.6593C37.1272 14.6574 38.7616 14.1144 40.4421 14.1103C42.5897 14.107 44.6429 14.993 46.1136 16.5583H46.1455L46.55 17.053C47.7814 18.5909 48.3841 20.5385 48.2372 22.5031C48.0902 24.4681 47.2043 26.304 45.7576 27.6417C44.3113 28.9794 42.412 29.7192 40.4421 29.7121H40.442Z" fill="black"/>
<path d="M46.6145 42.9194C45.8848 42.7382 44.7656 45.5126 42.1339 45.5126C38.7553 45.5126 37.166 39.3355 31.8865 39.3355C27.698 39.3355 26.422 43.1415 26.1452 43.1415C25.8674 43.1415 24.5918 39.3355 20.4034 39.3355C15.1252 39.3355 13.5346 45.5126 10.1555 45.5126C7.5252 45.5126 6.40612 42.7381 5.67689 42.9194C4.99438 43.0891 6.93373 52.5243 16.1742 52.5243C22.1698 52.5243 25.6939 46.5265 26.1453 46.5265C26.5967 46.5265 30.1209 52.5243 36.1164 52.5243C45.3578 52.5248 47.2958 43.0886 46.6146 42.9194" fill="black"/>
</svg>
