<svg width="140" height="140" viewBox="0 0 140 140" fill="none" xmlns="http://www.w3.org/2000/svg">
<path d="M70 124.688C49.4944 124.688 32.8125 108.006 32.8125 87.5C32.8125 66.9944 49.4944 50.3125 70 50.3125C81.0119 50.3125 91.3937 55.1512 98.4856 63.5928C104.097 70.2734 107.188 78.7631 107.188 87.5C107.188 108.006 90.5056 124.688 70 124.688ZM70 54.6875C51.9072 54.6875 37.1875 69.4072 37.1875 87.5C37.1875 105.593 51.9072 120.312 70 120.312C88.0928 120.312 102.812 105.593 102.812 87.5C102.812 79.7913 100.087 72.2991 95.1366 66.4059C88.8781 58.9597 79.7169 54.6875 70 54.6875Z" fill="url(#paint0_linear_1_163)"/>
<path d="M94.0625 48.4422V39.375C94.0625 36.9622 92.1003 35 89.6875 35H87.5V24.0625C87.5 14.4134 79.6491 6.5625 70 6.5625C60.3509 6.5625 52.5 14.4134 52.5 24.0625V35H50.3125C47.8997 35 45.9375 36.9622 45.9375 39.375V48.4422C32.8366 56.5447 24.0625 70.9975 24.0625 87.5C24.0625 112.831 44.6688 133.438 70 133.438C95.3313 133.438 115.938 112.831 115.938 87.5C115.938 70.9975 107.163 56.5447 94.0625 48.4422ZM89.6875 39.375V46.0578C86.9094 44.7322 83.9869 43.6822 80.9375 42.9341V39.375H89.6875ZM56.875 24.0625C56.875 16.8241 62.7616 10.9375 70 10.9375C77.2384 10.9375 83.125 16.8241 83.125 24.0625V35H80.9375C78.5247 35 76.5625 36.9622 76.5625 39.375V42.0875C74.4122 41.7769 72.2334 41.5625 70 41.5625C67.7666 41.5625 65.5878 41.7769 63.4375 42.0875V39.375C63.4375 36.9622 61.4753 35 59.0625 35H56.875V24.0625ZM50.3125 39.375H59.0625V42.9341C56.0131 43.6822 53.0906 44.7344 50.3125 46.0578V39.375ZM70 129.062C47.0816 129.062 28.4375 110.418 28.4375 87.5C28.4375 64.5816 47.0816 45.9375 70 45.9375C92.9184 45.9375 111.562 64.5816 111.562 87.5C111.562 110.418 92.9184 129.062 70 129.062Z" fill="url(#paint1_linear_1_163)"/>
<path d="M70 70C62.7616 70 56.875 75.8866 56.875 83.125C56.875 87.9703 59.5219 92.2009 63.4375 94.4737V100.625C63.4375 104.243 66.3819 107.188 70 107.188C73.6181 107.188 76.5625 104.243 76.5625 100.625V94.4737C80.4781 92.2009 83.125 87.9703 83.125 83.125C83.125 75.8866 77.2384 70 70 70ZM72.1875 100.625C72.1875 101.83 71.2053 102.812 70 102.812C68.7947 102.812 67.8125 101.83 67.8125 100.625V96.25H72.1875V100.625ZM70 91.875C65.1744 91.875 61.25 87.9506 61.25 83.125C61.25 78.2994 65.1744 74.375 70 74.375C74.8256 74.375 78.75 78.2994 78.75 83.125C78.75 87.9506 74.8256 91.875 70 91.875Z" fill="url(#paint2_linear_1_163)"/>
<defs>
<linearGradient id="paint0_linear_1_163" x1="70" y1="50.3125" x2="70" y2="124.688" gradientUnits="userSpaceOnUse">
<stop stop-color="#6DC7FF"/>
<stop offset="1" stop-color="#E6ABFF"/>
</linearGradient>
<linearGradient id="paint1_linear_1_163" x1="70" y1="5.19531" x2="70" y2="134.809" gradientUnits="userSpaceOnUse">
<stop stop-color="#1A6DFF"/>
<stop offset="1" stop-color="#C822FF"/>
</linearGradient>
<linearGradient id="paint2_linear_1_163" x1="70" y1="5.19531" x2="70" y2="134.809" gradientUnits="userSpaceOnUse">
<stop stop-color="#1A6DFF"/>
<stop offset="1" stop-color="#C822FF"/>
</linearGradient>
</defs>
</svg>
