<svg width="140" height="25" viewBox="0 0 140 25" fill="none" xmlns="http://www.w3.org/2000/svg">
<rect x="99.7554" y="4.70947" width="40.2446" height="14.5566" fill="white"/>
<rect x="30.8252" y="4.70947" width="109.174" height="1.2844" fill="white"/>
<rect x="30.8252" y="17.9814" width="109.174" height="1.2844" fill="white"/>
<path d="M33.7698 15.9291C33.1916 15.9291 32.6812 15.8256 32.2386 15.6186C31.796 15.4116 31.4498 15.1153 31.2 14.7299C30.9501 14.3444 30.8252 13.8804 30.8252 13.3379V13.0381H32.2172V13.3379C32.2172 13.7876 32.3564 14.1267 32.6348 14.3551C32.9132 14.5764 33.2915 14.687 33.7698 14.687C34.2552 14.687 34.6157 14.5907 34.8512 14.3979C35.0939 14.2052 35.2153 13.9589 35.2153 13.6591C35.2153 13.4521 35.1546 13.2843 35.0332 13.1559C34.919 13.0274 34.7477 12.9239 34.5193 12.8453C34.298 12.7597 34.0267 12.6812 33.7055 12.6098L33.4592 12.5562C32.9453 12.442 32.5027 12.2993 32.1315 12.1279C31.7675 11.9495 31.4855 11.7175 31.2856 11.4319C31.0929 11.1464 30.9965 10.7752 30.9965 10.3184C30.9965 9.86151 31.1036 9.47247 31.3177 9.15125C31.539 8.82288 31.846 8.57304 32.2386 8.40172C32.6383 8.22326 33.1059 8.13403 33.6413 8.13403C34.1766 8.13403 34.6513 8.22683 35.0654 8.41243C35.4865 8.59089 35.8149 8.86214 36.0505 9.2262C36.2932 9.58312 36.4145 10.0328 36.4145 10.5753V10.8966H35.0225V10.5753C35.0225 10.2898 34.9654 10.0614 34.8512 9.89006C34.7441 9.71161 34.5871 9.58312 34.3801 9.50459C34.1731 9.41893 33.9268 9.3761 33.6413 9.3761C33.213 9.3761 32.8953 9.45819 32.6883 9.62238C32.4884 9.77942 32.3885 9.99714 32.3885 10.2755C32.3885 10.4611 32.4349 10.6182 32.5277 10.7467C32.6276 10.8752 32.774 10.9822 32.9667 11.0679C33.1594 11.1536 33.4057 11.2285 33.7055 11.2927L33.9518 11.3463C34.4872 11.4605 34.9512 11.6068 35.3438 11.7853C35.7435 11.9638 36.054 12.1993 36.2753 12.492C36.4966 12.7847 36.6072 13.1594 36.6072 13.6163C36.6072 14.0731 36.4895 14.4764 36.2539 14.8262C36.0255 15.1689 35.6971 15.4401 35.2688 15.64C34.8476 15.8327 34.348 15.9291 33.7698 15.9291Z" fill="black"/>
<path d="M37.6614 15.7792V8.28394H39.0747V14.4943H42.5011V15.7792H37.6614Z" fill="black"/>
<path d="M46.1262 15.9291C45.184 15.9291 44.4344 15.6721 43.8776 15.1582C43.3209 14.6371 43.0425 13.8947 43.0425 12.931V11.1321C43.0425 10.1685 43.3209 9.42964 43.8776 8.91568C44.4344 8.39458 45.184 8.13403 46.1262 8.13403C47.0685 8.13403 47.818 8.39458 48.3748 8.91568C48.9316 9.42964 49.21 10.1685 49.21 11.1321V12.931C49.21 13.8947 48.9316 14.6371 48.3748 15.1582C47.818 15.6721 47.0685 15.9291 46.1262 15.9291ZM46.1262 14.6656C46.6545 14.6656 47.0649 14.5121 47.3576 14.2052C47.6503 13.8982 47.7966 13.4878 47.7966 12.9738V11.0893C47.7966 10.5753 47.6503 10.1649 47.3576 9.85794C47.0649 9.55099 46.6545 9.39752 46.1262 9.39752C45.6051 9.39752 45.1947 9.55099 44.8949 9.85794C44.6022 10.1649 44.4558 10.5753 44.4558 11.0893V12.9738C44.4558 13.4878 44.6022 13.8982 44.8949 14.2052C45.1947 14.5121 45.6051 14.6656 46.1262 14.6656Z" fill="black"/>
<path d="M51.8811 15.7792V9.56884H49.6968V8.28394H55.4788V9.56884H53.2945V15.7792H51.8811Z" fill="black"/>
<path d="M56.4413 15.7792V8.28394H61.1526V9.56884H57.8547V11.3784H60.8956V12.6633H57.8547V15.7792H56.4413Z" fill="black"/>
<path d="M62.161 15.7792V8.28394H63.5744V15.7792H62.161Z" fill="black"/>
<path d="M64.9843 15.7792V8.28394H67.6719L69.1602 14.8155H69.353V8.28394H70.7449V15.7792H68.0574L66.569 9.24761H66.3763V15.7792H64.9843Z" fill="black"/>
<path d="M71.9434 15.7792V14.5371H72.9284V9.52601H71.9434V8.28394H75.0271C76.0336 8.28394 76.7974 8.54092 77.3185 9.05488C77.8468 9.5617 78.1109 10.3184 78.1109 11.3249V12.7383C78.1109 13.7448 77.8468 14.505 77.3185 15.019C76.7974 15.5258 76.0336 15.7792 75.0271 15.7792H71.9434ZM74.3418 14.4943H75.0485C75.6196 14.4943 76.0372 14.3444 76.3013 14.0446C76.5654 13.7448 76.6975 13.3236 76.6975 12.7811V11.282C76.6975 10.7324 76.5654 10.3112 76.3013 10.0186C76.0372 9.71874 75.6196 9.56884 75.0485 9.56884H74.3418V14.4943Z" fill="black"/>
<path d="M79.2889 15.7792V8.28394H84.1072V9.56884H80.7023V11.357H83.8074V12.6419H80.7023V14.4943H84.1715V15.7792H79.2889Z" fill="black"/>
<path d="M85.2177 15.7792V8.28394H88.4728C88.9439 8.28394 89.3544 8.36603 89.7042 8.53021C90.054 8.69439 90.3252 8.92639 90.5179 9.2262C90.7107 9.52601 90.807 9.87936 90.807 10.2862V10.4147C90.807 10.8644 90.7 11.2285 90.4858 11.5069C90.2717 11.7853 90.0076 11.9887 89.6935 12.1172V12.31C89.979 12.3242 90.2003 12.4242 90.3573 12.6098C90.5144 12.7882 90.5929 13.0274 90.5929 13.3272V15.7792H89.1795V13.5306C89.1795 13.3593 89.1331 13.2201 89.0403 13.113C88.9546 13.0059 88.8083 12.9524 88.6013 12.9524H86.6311V15.7792H85.2177ZM86.6311 11.6675H88.3229C88.6584 11.6675 88.919 11.5783 89.1046 11.3998C89.2973 11.2142 89.3937 10.9715 89.3937 10.6717V10.5646C89.3937 10.2648 89.3009 10.0257 89.1153 9.84723C88.9297 9.66164 88.6655 9.56884 88.3229 9.56884H86.6311V11.6675Z" fill="black"/>
<path d="M94.585 15.9291C94.0068 15.9291 93.4964 15.8256 93.0539 15.6186C92.6113 15.4116 92.2651 15.1153 92.0152 14.7299C91.7654 14.3444 91.6405 13.8804 91.6405 13.3379V13.0381H93.0325V13.3379C93.0325 13.7876 93.1716 14.1267 93.45 14.3551C93.7284 14.5764 94.1068 14.687 94.585 14.687C95.0704 14.687 95.4309 14.5907 95.6665 14.3979C95.9092 14.2052 96.0306 13.9589 96.0306 13.6591C96.0306 13.4521 95.9699 13.2843 95.8485 13.1559C95.7343 13.0274 95.563 12.9239 95.3346 12.8453C95.1133 12.7597 94.842 12.6812 94.5208 12.6098L94.2745 12.5562C93.7606 12.442 93.318 12.2993 92.9468 12.1279C92.5827 11.9495 92.3008 11.7175 92.1009 11.4319C91.9082 11.1464 91.8118 10.7752 91.8118 10.3184C91.8118 9.86151 91.9189 9.47247 92.133 9.15125C92.3543 8.82288 92.6613 8.57304 93.0539 8.40172C93.4536 8.22326 93.9212 8.13403 94.4566 8.13403C94.9919 8.13403 95.4666 8.22683 95.8806 8.41243C96.3018 8.59089 96.6302 8.86214 96.8657 9.2262C97.1084 9.58312 97.2298 10.0328 97.2298 10.5753V10.8966H95.8378V10.5753C95.8378 10.2898 95.7807 10.0614 95.6665 9.89006C95.5594 9.71161 95.4024 9.58312 95.1954 9.50459C94.9884 9.41893 94.7421 9.3761 94.4566 9.3761C94.0283 9.3761 93.7106 9.45819 93.5036 9.62238C93.3037 9.77942 93.2038 9.99714 93.2038 10.2755C93.2038 10.4611 93.2502 10.6182 93.343 10.7467C93.4429 10.8752 93.5892 10.9822 93.782 11.0679C93.9747 11.1536 94.221 11.2285 94.5208 11.2927L94.7671 11.3463C95.3024 11.4605 95.7664 11.6068 96.159 11.7853C96.5588 11.9638 96.8693 12.1993 97.0906 12.492C97.3119 12.7847 97.4225 13.1594 97.4225 13.6163C97.4225 14.0731 97.3047 14.4764 97.0692 14.8262C96.8408 15.1689 96.5124 15.4401 96.0841 15.64C95.6629 15.8327 95.1632 15.9291 94.585 15.9291Z" fill="black"/>
<path d="M105.408 15.9291C104.466 15.9291 103.717 15.6721 103.16 15.1582C102.603 14.6371 102.325 13.8947 102.325 12.931V11.1321C102.325 10.1685 102.603 9.42964 103.16 8.91568C103.717 8.39458 104.466 8.13403 105.408 8.13403C106.351 8.13403 107.1 8.39458 107.657 8.91568C108.214 9.42964 108.492 10.1685 108.492 11.1321V12.931C108.492 13.8947 108.214 14.6371 107.657 15.1582C107.1 15.6721 106.351 15.9291 105.408 15.9291ZM105.408 14.6656C105.937 14.6656 106.347 14.5121 106.64 14.2052C106.933 13.8982 107.079 13.4878 107.079 12.9738V11.0893C107.079 10.5753 106.933 10.1649 106.64 9.85794C106.347 9.55099 105.937 9.39752 105.408 9.39752C104.887 9.39752 104.477 9.55099 104.177 9.85794C103.884 10.1649 103.738 10.5753 103.738 11.0893V12.9738C103.738 13.4878 103.884 13.8982 104.177 14.2052C104.477 14.5121 104.887 14.6656 105.408 14.6656Z" fill="black"/>
<path d="M109.732 15.7792V8.28394H112.42L113.908 14.8155H114.101V8.28394H115.493V15.7792H112.805L111.317 9.24761H111.124V15.7792H109.732Z" fill="black"/>
<path d="M116.905 15.7792V8.28394H118.319V14.4943H121.745V15.7792H116.905Z" fill="black"/>
<path d="M122.709 15.7792V8.28394H124.122V15.7792H122.709Z" fill="black"/>
<path d="M125.532 15.7792V8.28394H128.219L129.708 14.8155H129.9V8.28394H131.292V15.7792H128.605L127.117 9.24761H126.924V15.7792H125.532Z" fill="black"/>
<path d="M132.705 15.7792V8.28394H137.523V9.56884H134.118V11.357H137.224V12.6419H134.118V14.4943H137.588V15.7792H132.705Z" fill="black"/>
<circle cx="5.4049" cy="10.0167" r="3.8673" fill="white"/>
<circle cx="5.40432" cy="10.0166" r="0.8594" fill="black"/>
<circle cx="18.7276" cy="10.0167" r="3.8673" fill="white"/>
<circle cx="18.7281" cy="10.0166" r="0.8594" fill="black"/>
<path d="M23.6326 8.2136H23.6963L21.2976 3.6704C20.8816 2.94989 20.2274 2.39689 19.4477 2.10698C19.0898 1.26359 18.4118 0.596721 17.5627 0.252809C16.7134 -0.0909502 15.7626 -0.0835983 14.9189 0.273151C14.0751 0.630069 13.4075 1.30716 13.0626 2.15603C12.3928 1.81911 11.603 1.81911 10.9334 2.15603C10.5866 1.30152 9.91268 0.621177 9.0619 0.26628C8.21094 -0.0887602 7.25331 -0.0887602 6.40252 0.26628C5.55157 0.62115 4.87763 1.30147 4.53106 2.15603C3.79496 2.45756 3.18088 2.99671 2.7864 3.68764L0.91695 7.09871C-0.0078646 8.4681 -0.248508 10.1881 0.265244 11.7587C0.778995 13.3293 1.98921 14.5746 3.54451 15.1326C5.09981 15.6905 6.82549 15.4986 8.22043 14.6126C9.61507 13.7266 10.5224 12.2459 10.6787 10.6006C10.6952 10.4321 10.7035 10.2629 10.7031 10.0934C10.7036 9.73379 10.6682 9.37517 10.5977 9.0225C10.5503 8.80234 10.489 8.58541 10.4139 8.3731C10.6064 7.97772 10.9407 7.66935 11.3502 7.50918C11.7597 7.34901 12.2143 7.34901 12.6238 7.50918C13.0333 7.66935 13.3676 7.97773 13.56 8.3731C13.485 8.58626 13.4236 8.80404 13.3763 9.02491C13.3057 9.37756 13.2703 9.73636 13.2708 10.0959C13.271 10.2596 13.2792 10.4232 13.2953 10.5859C13.4359 12.124 14.2339 13.5264 15.4845 14.4327C16.7348 15.3389 18.3158 15.6607 19.821 15.3153C21.3262 14.97 22.6087 13.991 23.339 12.6302C24.0695 11.2695 24.1765 9.65943 23.6326 8.2139L23.6326 8.2136ZM5.34938 13.6832C4.45808 13.6801 3.59995 13.3454 2.94177 12.7442C2.28359 12.1432 1.87252 11.3188 1.78847 10.4313C1.70455 9.54378 1.95374 8.65694 2.48752 7.94312C3.02144 7.22912 3.80165 6.73953 4.67654 6.56926C5.55126 6.39884 6.45831 6.5602 7.22071 7.02192C7.98316 7.48346 8.54683 8.21216 8.80165 9.06636C8.90317 9.39918 8.95428 9.74534 8.95359 10.0932C8.95103 11.047 8.5699 11.9609 7.89411 12.634C7.21834 13.3072 6.3031 13.6846 5.34941 13.6832L5.34938 13.6832ZM18.6246 13.6832C17.6712 13.6839 16.7567 13.3063 16.0814 12.6331C15.4061 11.9601 15.0253 11.0466 15.0228 10.0931C15.0211 9.74375 15.0715 9.39605 15.1724 9.06137C15.3981 8.32121 15.8553 7.67285 16.4766 7.21149C17.098 6.75012 17.8507 6.50003 18.6246 6.49815C19.6137 6.49661 20.5592 6.90465 21.2365 7.6255H21.2512L21.4375 7.85336C22.0046 8.56158 22.2821 9.45849 22.2144 10.3632C22.1468 11.2682 21.7388 12.1137 21.0726 12.7297C20.4065 13.3458 19.5318 13.6864 18.6246 13.6832H18.6246Z" fill="black"/>
<path d="M21.4667 19.7652C21.1307 19.6818 20.6153 20.9595 19.4033 20.9595C17.8474 20.9595 17.1155 18.1147 14.6841 18.1147C12.7552 18.1147 12.1676 19.8675 12.0401 19.8675C11.9122 19.8675 11.3247 18.1147 9.39587 18.1147C6.96513 18.1147 6.23261 20.9595 4.67643 20.9595C3.46512 20.9595 2.94976 19.6818 2.61393 19.7652C2.29962 19.8434 3.19274 24.1885 7.44821 24.1885C10.2093 24.1885 11.8323 21.4264 12.0402 21.4264C12.248 21.4264 13.871 24.1885 16.6321 24.1885C20.888 24.1888 21.7805 19.8432 21.4668 19.7652" fill="black"/>
</svg>
