<svg width="304" height="53" viewBox="0 0 304 53" fill="none" xmlns="http://www.w3.org/2000/svg">
<rect x="216.612" y="10.226" width="87.3884" height="31.6086" fill="#D3FF26"/>
<rect x="66.936" y="10.226" width="237.064" height="2.78899" fill="#D3FF26"/>
<rect x="66.936" y="39.0456" width="237.064" height="2.78899" fill="#D3FF26"/>
<path d="M73.33 34.5898C72.0744 34.5898 70.9661 34.365 70.0051 33.9155C69.0441 33.466 68.2923 32.8227 67.7498 31.9857C67.2073 31.1487 66.936 30.1412 66.936 28.9631V28.3121H69.9586V28.9631C69.9586 29.9397 70.2609 30.6759 70.8654 31.172C71.4699 31.6525 72.2914 31.8927 73.33 31.8927C74.384 31.8927 75.1668 31.6835 75.6783 31.265C76.2053 30.8464 76.4688 30.3117 76.4688 29.6607C76.4688 29.2112 76.337 28.8469 76.0735 28.5679C75.8255 28.2889 75.4535 28.0641 74.9575 27.8936C74.477 27.7076 73.888 27.5371 73.1905 27.3821L72.6557 27.2659C71.5397 27.0178 70.5786 26.7078 69.7726 26.3358C68.9821 25.9483 68.3698 25.4446 67.9358 24.8245C67.5173 24.2045 67.308 23.3985 67.308 22.4065C67.308 21.4144 67.5406 20.5697 68.0056 19.8722C68.4861 19.1591 69.1526 18.6166 70.0051 18.2446C70.8731 17.8571 71.8884 17.6633 73.0509 17.6633C74.2135 17.6633 75.2443 17.8649 76.1433 18.2679C77.0578 18.6554 77.7708 19.2444 78.2823 20.0349C78.8094 20.8099 79.0729 21.7865 79.0729 22.9645V23.662H76.0503V22.9645C76.0503 22.3445 75.9263 21.8485 75.6783 21.4764C75.4458 21.0889 75.1048 20.8099 74.6552 20.6394C74.2057 20.4534 73.671 20.3604 73.0509 20.3604C72.1209 20.3604 71.4312 20.5387 70.9816 20.8952C70.5476 21.2362 70.3306 21.709 70.3306 22.3135C70.3306 22.7165 70.4314 23.0575 70.6329 23.3365C70.8499 23.6155 71.1676 23.848 71.5862 24.034C72.0047 24.22 72.5394 24.3828 73.1905 24.5223L73.7252 24.6385C74.8877 24.8865 75.8953 25.2043 76.7478 25.5918C77.6158 25.9793 78.2901 26.4908 78.7706 27.1263C79.2511 27.7619 79.4914 28.5756 79.4914 29.5677C79.4914 30.5597 79.2356 31.4355 78.7241 32.195C78.2281 32.939 77.5151 33.528 76.585 33.962C75.6705 34.3805 74.5855 34.5898 73.33 34.5898Z" fill="black"/>
<path d="M81.7803 34.2643V17.9889H84.8494V31.4742H92.2896V34.2643H81.7803Z" fill="black"/>
<path d="M100.161 34.5898C98.1151 34.5898 96.4876 34.0318 95.2785 32.9158C94.0695 31.7842 93.465 30.1722 93.465 28.0796V24.1735C93.465 22.081 94.0695 20.4767 95.2785 19.3606C96.4876 18.2291 98.1151 17.6633 100.161 17.6633C102.207 17.6633 103.835 18.2291 105.044 19.3606C106.253 20.4767 106.857 22.081 106.857 24.1735V28.0796C106.857 30.1722 106.253 31.7842 105.044 32.9158C103.835 34.0318 102.207 34.5898 100.161 34.5898ZM100.161 31.8462C101.308 31.8462 102.199 31.513 102.835 30.8464C103.471 30.1799 103.788 29.2887 103.788 28.1726V24.0805C103.788 22.9645 103.471 22.0732 102.835 21.4067C102.199 20.7402 101.308 20.4069 100.161 20.4069C99.0296 20.4069 98.1384 20.7402 97.4873 21.4067C96.8518 22.0732 96.5341 22.9645 96.5341 24.0805V28.1726C96.5341 29.2887 96.8518 30.1799 97.4873 30.8464C98.1384 31.513 99.0296 31.8462 100.161 31.8462Z" fill="black"/>
<path d="M112.657 34.2643V20.7789H107.914V17.9889H120.47V20.7789H115.727V34.2643H112.657Z" fill="black"/>
<path d="M122.56 34.2643V17.9889H132.79V20.7789H125.629V24.7083H132.232V27.4984H125.629V34.2643H122.56Z" fill="black"/>
<path d="M134.98 34.2643V17.9889H138.049V34.2643H134.98Z" fill="black"/>
<path d="M141.11 34.2643V17.9889H146.946L150.178 32.1717H150.596V17.9889H153.619V34.2643H147.783L144.551 20.0814H144.133V34.2643H141.11Z" fill="black"/>
<path d="M156.221 34.2643V31.5672H158.36V20.6859H156.221V17.9889H162.917C165.103 17.9889 166.762 18.5469 167.893 19.6629C169.04 20.7634 169.614 22.4065 169.614 24.592V27.6611C169.614 29.8467 169.04 31.4975 167.893 32.6135C166.762 33.714 165.103 34.2643 162.917 34.2643H156.221ZM161.429 31.4742H162.964C164.204 31.4742 165.111 31.1487 165.684 30.4977C166.258 29.8467 166.545 28.9321 166.545 27.7541V24.499C166.545 23.3055 166.258 22.391 165.684 21.7555C165.111 21.1044 164.204 20.7789 162.964 20.7789H161.429V31.4742Z" fill="black"/>
<path d="M172.172 34.2643V17.9889H182.634V20.7789H175.241V24.6618H181.983V27.4519H175.241V31.4742H182.774V34.2643H172.172Z" fill="black"/>
<path d="M185.046 34.2643V17.9889H192.114C193.137 17.9889 194.028 18.1671 194.788 18.5236C195.547 18.8801 196.136 19.3839 196.555 20.0349C196.973 20.6859 197.183 21.4532 197.183 22.3367V22.6157C197.183 23.5923 196.95 24.3828 196.485 24.9873C196.02 25.5918 195.446 26.0336 194.764 26.3126V26.7311C195.384 26.7621 195.865 26.9791 196.206 27.3821C196.547 27.7696 196.718 28.2889 196.718 28.9399V34.2643H193.648V29.3817C193.648 29.0096 193.548 28.7074 193.346 28.4749C193.16 28.2424 192.842 28.1261 192.393 28.1261H188.115V34.2643H185.046ZM188.115 25.336H191.788C192.517 25.336 193.083 25.1423 193.486 24.7548C193.904 24.3518 194.113 23.8248 194.113 23.1737V22.9412C194.113 22.2902 193.912 21.771 193.509 21.3834C193.106 20.9804 192.532 20.7789 191.788 20.7789H188.115V25.336Z" fill="black"/>
<path d="M205.386 34.5898C204.131 34.5898 203.022 34.365 202.061 33.9155C201.1 33.466 200.349 32.8227 199.806 31.9857C199.264 31.1487 198.992 30.1412 198.992 28.9631V28.3121H202.015V28.9631C202.015 29.9397 202.317 30.6759 202.922 31.172C203.526 31.6525 204.348 31.8927 205.386 31.8927C206.44 31.8927 207.223 31.6835 207.734 31.265C208.262 30.8464 208.525 30.3117 208.525 29.6607C208.525 29.2112 208.393 28.8469 208.13 28.5679C207.882 28.2889 207.51 28.0641 207.014 27.8936C206.533 27.7076 205.944 27.5371 205.247 27.3821L204.712 27.2659C203.596 27.0178 202.635 26.7078 201.829 26.3358C201.038 25.9483 200.426 25.4446 199.992 24.8245C199.574 24.2045 199.364 23.3985 199.364 22.4065C199.364 21.4144 199.597 20.5697 200.062 19.8722C200.542 19.1591 201.209 18.6166 202.061 18.2446C202.929 17.8571 203.945 17.6633 205.107 17.6633C206.27 17.6633 207.3 17.8649 208.2 18.2679C209.114 18.6554 209.827 19.2444 210.339 20.0349C210.866 20.8099 211.129 21.7865 211.129 22.9645V23.662H208.107V22.9645C208.107 22.3445 207.982 21.8485 207.734 21.4764C207.502 21.0889 207.161 20.8099 206.711 20.6394C206.262 20.4534 205.727 20.3604 205.107 20.3604C204.177 20.3604 203.487 20.5387 203.038 20.8952C202.604 21.2362 202.387 21.709 202.387 22.3135C202.387 22.7165 202.488 23.0575 202.689 23.3365C202.906 23.6155 203.224 23.848 203.642 24.034C204.061 24.22 204.596 24.3828 205.247 24.5223L205.781 24.6385C206.944 24.8865 207.952 25.2043 208.804 25.5918C209.672 25.9793 210.346 26.4908 210.827 27.1263C211.307 27.7619 211.548 28.5756 211.548 29.5677C211.548 30.5597 211.292 31.4355 210.78 32.195C210.284 32.939 209.571 33.528 208.641 33.962C207.727 34.3805 206.642 34.5898 205.386 34.5898Z" fill="black"/>
<path d="M228.886 34.5898C226.84 34.5898 225.213 34.0318 224.003 32.9158C222.794 31.7842 222.19 30.1722 222.19 28.0796V24.1735C222.19 22.081 222.794 20.4767 224.003 19.3606C225.213 18.2291 226.84 17.6633 228.886 17.6633C230.932 17.6633 232.56 18.2291 233.769 19.3606C234.978 20.4767 235.582 22.081 235.582 24.1735V28.0796C235.582 30.1722 234.978 31.7842 233.769 32.9158C232.56 34.0318 230.932 34.5898 228.886 34.5898ZM228.886 31.8462C230.033 31.8462 230.924 31.513 231.56 30.8464C232.195 30.1799 232.513 29.2887 232.513 28.1726V24.0805C232.513 22.9645 232.195 22.0732 231.56 21.4067C230.924 20.7402 230.033 20.4069 228.886 20.4069C227.755 20.4069 226.863 20.7402 226.212 21.4067C225.577 22.0732 225.259 22.9645 225.259 24.0805V28.1726C225.259 29.2887 225.577 30.1799 226.212 30.8464C226.863 31.513 227.755 31.8462 228.886 31.8462Z" fill="black"/>
<path d="M238.274 34.2643V17.9889H244.11L247.342 32.1717H247.761V17.9889H250.783V34.2643H244.947L241.715 20.0814H241.297V34.2643H238.274Z" fill="black"/>
<path d="M253.85 34.2643V17.9889H256.919V31.4742H264.36V34.2643H253.85Z" fill="black"/>
<path d="M266.452 34.2643V17.9889H269.521V34.2643H266.452Z" fill="black"/>
<path d="M272.583 34.2643V17.9889H278.418L281.65 32.1717H282.069V17.9889H285.091V34.2643H279.255L276.024 20.0814H275.605V34.2643H272.583Z" fill="black"/>
<path d="M288.159 34.2643V17.9889H298.621V20.7789H291.228V24.6618H297.97V27.4519H291.228V31.4742H298.761V34.2643H288.159Z" fill="black"/>
<circle cx="11.7357" cy="21.7506" r="8.39757" fill="#D3FF26"/>
<circle cx="11.7355" cy="21.7504" r="1.86613" fill="black"/>
<circle cx="40.6661" cy="21.7506" r="8.39757" fill="#D3FF26"/>
<circle cx="40.6669" cy="21.7504" r="1.86613" fill="black"/>
<path d="M51.3166 17.8353H51.455L46.2463 7.97003C45.343 6.40548 43.9223 5.20468 42.2293 4.57516C41.4522 2.74379 39.9799 1.29574 38.1362 0.548958C36.2921 -0.197492 34.2275 -0.181528 32.3953 0.593128C30.563 1.36815 29.1134 2.83842 28.3645 4.68166C26.91 3.95007 25.1951 3.95007 23.741 4.68166C22.988 2.82616 21.5247 1.34884 19.6773 0.57821C17.8295 -0.192737 15.7501 -0.192737 13.9026 0.57821C12.0548 1.34879 10.5914 2.82606 9.83889 4.68166C8.24049 5.33643 6.90706 6.50714 6.05047 8.00745L1.99109 15.4144C-0.0170774 18.3879 -0.539618 22.1228 0.575958 25.5333C1.69153 28.9438 4.31944 31.6478 7.69667 32.8594C11.0739 34.0709 14.8211 33.6541 17.8501 31.7302C20.8785 29.8064 22.8487 26.5912 23.188 23.0185C23.224 22.6526 23.2418 22.2851 23.2411 21.9172C23.2422 21.1363 23.1654 20.3575 23.0121 19.5918C22.9093 19.1137 22.776 18.6426 22.6131 18.1816C23.031 17.3231 23.7569 16.6535 24.6461 16.3057C25.5353 15.9579 26.5225 15.9579 27.4117 16.3057C28.3009 16.6535 29.0268 17.3231 29.4446 18.1816C29.2817 18.6445 29.1485 19.1174 29.0457 19.597C28.8924 20.3627 28.8156 21.1419 28.8167 21.9225C28.8171 22.2781 28.8349 22.6333 28.8698 22.9866C29.1752 26.3265 30.908 29.3717 33.6235 31.3397C36.3386 33.3073 39.7715 34.0062 43.0399 33.2561C46.3084 32.5063 49.0933 30.3805 50.6791 27.4256C52.2652 24.471 52.4976 20.9748 51.3167 17.8359L51.3166 17.8353ZM11.6158 29.7121C9.68042 29.7055 7.81704 28.9787 6.38785 27.6732C4.95865 26.3682 4.06606 24.578 3.88355 22.6508C3.70132 20.7237 4.24242 18.7979 5.40148 17.2479C6.56085 15.6976 8.25503 14.6344 10.1548 14.2647C12.0542 13.8946 14.0238 14.245 15.6793 15.2476C17.3349 16.2498 18.5589 17.8321 19.1122 19.687C19.3326 20.4097 19.4436 21.1613 19.4421 21.9167C19.4366 23.9879 18.6089 25.9722 17.1415 27.4339C15.6741 28.8956 13.6868 29.7152 11.6159 29.7122L11.6158 29.7121ZM40.442 29.7121C38.3719 29.7136 36.386 28.8937 34.9197 27.432C33.4534 25.9706 32.6265 23.987 32.621 21.9166C32.6173 21.1579 32.7268 20.4029 32.9457 19.6761C33.436 18.0689 34.4287 16.6611 35.7778 15.6593C37.1272 14.6574 38.7616 14.1144 40.4421 14.1103C42.5897 14.107 44.6429 14.993 46.1136 16.5583H46.1455L46.55 17.053C47.7814 18.5909 48.3841 20.5385 48.2372 22.5031C48.0902 24.4681 47.2043 26.304 45.7576 27.6417C44.3113 28.9794 42.412 29.7192 40.4421 29.7121H40.442Z" fill="black"/>
<path d="M46.6145 42.9194C45.8848 42.7382 44.7656 45.5126 42.1339 45.5126C38.7553 45.5126 37.166 39.3355 31.8865 39.3355C27.698 39.3355 26.422 43.1415 26.1452 43.1415C25.8674 43.1415 24.5918 39.3355 20.4034 39.3355C15.1252 39.3355 13.5346 45.5126 10.1555 45.5126C7.5252 45.5126 6.40612 42.7381 5.67689 42.9194C4.99438 43.0891 6.93373 52.5243 16.1742 52.5243C22.1698 52.5243 25.6939 46.5265 26.1453 46.5265C26.5967 46.5265 30.1209 52.5243 36.1164 52.5243C45.3578 52.5248 47.2958 43.0886 46.6146 42.9194" fill="black"/>
</svg>
