<svg width="20" height="20" viewBox="0 0 20 20" fill="none" xmlns="http://www.w3.org/2000/svg">
<path d="M10.0002 1.66666C8.16658 1.66666 6.66683 3.16641 6.66683 4.99999V6.66666H5.2085C4.17475 6.66666 3.3335 7.50791 3.3335 8.54166V16.4583C3.3335 17.4921 4.17475 18.3333 5.2085 18.3333H14.7918C15.8256 18.3333 16.6668 17.4921 16.6668 16.4583V8.54166C16.6668 7.50791 15.8256 6.66666 14.7918 6.66666H13.3335V4.99999C13.3335 3.16641 11.8337 1.66666 10.0002 1.66666ZM10.0002 2.91666C11.1583 2.91666 12.0835 3.8419 12.0835 4.99999V6.66666H7.91683V4.99999C7.91683 3.8419 8.84207 2.91666 10.0002 2.91666ZM7.0835 11.6667C7.54391 11.6667 7.91683 12.0396 7.91683 12.5C7.91683 12.9604 7.54391 13.3333 7.0835 13.3333C6.62308 13.3333 6.25016 12.9604 6.25016 12.5C6.25016 12.0396 6.62308 11.6667 7.0835 11.6667ZM10.0002 11.6667C10.4606 11.6667 10.8335 12.0396 10.8335 12.5C10.8335 12.9604 10.4606 13.3333 10.0002 13.3333C9.53975 13.3333 9.16683 12.9604 9.16683 12.5C9.16683 12.0396 9.53975 11.6667 10.0002 11.6667ZM12.9168 11.6667C13.3772 11.6667 13.7502 12.0396 13.7502 12.5C13.7502 12.9604 13.3772 13.3333 12.9168 13.3333C12.4564 13.3333 12.0835 12.9604 12.0835 12.5C12.0835 12.0396 12.4564 11.6667 12.9168 11.6667Z" fill="black"/>
</svg>
