<svg width="20" height="20" viewBox="0 0 20 20" fill="none" xmlns="http://www.w3.org/2000/svg">
<path d="M10.0049 0.500015C9.86475 0.499139 9.72713 0.53756 9.60769 0.610919C9.48824 0.684278 9.39174 0.789639 9.32913 0.915054L6.75296 6.0674L0.635776 7.0088C0.498851 7.02996 0.370462 7.08863 0.264847 7.17831C0.159231 7.26798 0.0805168 7.38515 0.0374324 7.51683C-0.005652 7.64851 -0.0114225 7.78956 0.0207607 7.92431C0.0529439 8.05907 0.121823 8.18229 0.21976 8.28029L4.45121 12.5117L3.50882 18.6358C3.48774 18.7728 3.50504 18.9129 3.5588 19.0407C3.61256 19.1685 3.70068 19.2789 3.81337 19.3596C3.92607 19.4403 4.05893 19.4882 4.19721 19.498C4.33548 19.5078 4.47377 19.4791 4.59671 19.4151L10 16.5957L15.4034 19.4151C15.5263 19.4791 15.6646 19.5078 15.8029 19.498C15.9411 19.4882 16.074 19.4403 16.1867 19.3596C16.2994 19.2789 16.3875 19.1685 16.4413 19.0407C16.495 18.9129 16.5123 18.7728 16.4912 18.6358L15.5489 12.5117L19.7803 8.28029C19.8782 8.18229 19.9471 8.05907 19.9793 7.92431C20.0115 7.78956 20.0057 7.64851 19.9626 7.51683C19.9195 7.38515 19.8408 7.26798 19.7352 7.17831C19.6296 7.08863 19.5012 7.02996 19.3643 7.0088L13.2471 6.0674L10.6709 0.915054C10.6091 0.791123 10.5141 0.686744 10.3965 0.613486C10.279 0.540229 10.1434 0.500954 10.0049 0.500015Z" fill="black"/>
</svg>
