<svg width="140" height="140" viewBox="0 0 140 140" fill="none" xmlns="http://www.w3.org/2000/svg">
<path d="M100.844 124.688C99.7238 124.688 98.5994 124.414 97.5582 123.865L71.0194 109.841C70.3763 109.504 69.6172 109.504 68.9829 109.841L42.4397 123.865C40.0619 125.121 37.2313 124.922 35.0504 123.347C32.8716 121.769 31.7997 119.14 32.2525 116.487L37.2904 86.9531C37.4326 86.1066 37.1525 85.2447 36.5422 84.6453L15.2382 63.7722C13.3263 61.8997 12.6525 59.1522 13.4816 56.6059C14.3129 54.0597 16.4741 52.2375 19.1254 51.8503L48.5232 47.5562C49.3807 47.4294 50.12 46.8913 50.5029 46.1125L63.7001 19.2347C64.8922 16.8153 67.305 15.3125 70 15.3125C70 15.3125 70 15.3125 70.0022 15.3125C72.695 15.3125 75.1079 16.8153 76.2957 19.2347L89.4907 46.1081C89.8757 46.8891 90.6194 47.4294 91.4791 47.5562L120.886 51.8525C123.533 52.2375 125.692 54.0575 126.523 56.6016C127.352 59.1456 126.68 61.8909 124.768 63.7613L103.453 84.6453C102.841 85.2447 102.563 86.1066 102.705 86.9509L107.745 116.487C108.2 119.138 107.128 121.767 104.95 123.347C103.723 124.235 102.288 124.688 100.844 124.688ZM70 105.212C71.05 105.212 72.1044 105.466 73.0625 105.976L99.6035 120C100.509 120.477 101.55 120.409 102.384 119.803C103.217 119.201 103.611 118.237 103.436 117.224L98.396 87.6859C98.0088 85.4284 98.7569 83.1228 100.393 81.5216L121.706 60.6397C122.432 59.9266 122.677 58.9247 122.364 57.9578C122.047 56.9931 121.26 56.3281 120.253 56.1794L90.8491 51.8831C88.5632 51.5528 86.5857 50.1134 85.5641 48.0353L72.3691 21.1619C71.9141 20.2387 71.0304 19.6875 70 19.6875C68.9697 19.6875 68.0838 20.2409 67.6288 21.1662L54.4316 48.0441C53.4122 50.1178 51.4413 51.555 49.1575 51.8875L19.7575 56.1794C18.7491 56.3259 17.9572 56.9931 17.64 57.9622C17.3272 58.9312 17.5722 59.9375 18.3007 60.6506L39.6025 81.5216C41.2388 83.1228 41.9869 85.4284 41.5997 87.6881L36.5619 117.222C36.3891 118.237 36.785 119.199 37.6141 119.805C38.4497 120.407 39.4888 120.477 40.3944 120L66.9375 105.976C67.8957 105.466 68.9479 105.212 70 105.212Z" fill="url(#paint0_linear_1_172)"/>
<path d="M71.9885 91.6236L84.8095 98.1576C86.6273 99.0829 88.7579 97.602 88.4123 95.6529L85.7982 80.872C85.6604 80.0911 85.9229 79.2948 86.5004 78.7501L97.696 68.1692C99.1573 66.7889 98.3435 64.3979 96.3179 64.1136L80.8917 61.9392C80.0823 61.8254 79.3845 61.3354 79.0257 60.6289L72.2292 47.2742C71.3038 45.4542 68.7029 45.4542 67.7776 47.2742L60.9788 60.6289C60.6201 61.3354 59.9201 61.8254 59.1129 61.9392L43.6867 64.1114C41.661 64.3957 40.8495 66.7867 42.3085 68.167L53.5217 78.7632C54.086 79.297 54.3463 80.0801 54.2107 80.8457L51.5923 95.6507C51.2467 97.5998 53.3795 99.0807 55.1951 98.1554L68.016 91.6214C69.2607 90.987 70.7395 90.987 71.9885 91.6236Z" fill="url(#paint1_linear_1_172)"/>
<defs>
<linearGradient id="paint0_linear_1_172" x1="70.0044" y1="15.3125" x2="70.0044" y2="126.098" gradientUnits="userSpaceOnUse">
<stop stop-color="#1A6DFF"/>
<stop offset="1" stop-color="#C822FF"/>
</linearGradient>
<linearGradient id="paint1_linear_1_172" x1="70.0001" y1="43.2032" x2="70.0001" y2="97.9017" gradientUnits="userSpaceOnUse">
<stop stop-color="#6DC7FF"/>
<stop offset="1" stop-color="#E6ABFF"/>
</linearGradient>
</defs>
</svg>
