<svg width="140" height="140" viewBox="0 0 140 140" fill="none" xmlns="http://www.w3.org/2000/svg">
<path d="M70 126.875C65.5331 126.875 61.6831 124.184 59.9878 120.339C56.945 123.244 52.36 124.257 48.2344 122.546C45.5372 121.428 43.435 119.326 42.315 116.629C41.7878 115.353 41.51 114.017 41.4794 112.676C37.5616 114.185 32.9394 113.372 29.7828 110.217C26.6262 107.061 25.8059 102.438 27.3219 98.5206C25.9831 98.49 24.6466 98.2122 23.3713 97.685C20.6741 96.565 18.5719 94.4628 17.4541 91.7656C16.3341 89.0663 16.3341 86.0934 17.4519 83.3941C17.9813 82.1188 18.7272 80.9791 19.6547 80.01C15.8134 78.3125 13.125 74.4647 13.125 70C13.125 65.5353 15.8134 61.6875 19.6547 59.99C18.7272 59.0231 17.9813 57.8813 17.4519 56.6059C16.3341 53.9066 16.3341 50.9338 17.4541 48.2344C18.5719 45.5372 20.6741 43.435 23.3713 42.315C24.6466 41.7878 25.9809 41.51 27.3219 41.4794C25.8059 37.5616 26.6262 32.9416 29.7828 29.7828C32.9372 26.6306 37.5594 25.8081 41.4794 27.3219C41.51 25.9831 41.7878 24.6466 42.315 23.3713C43.435 20.6741 45.5372 18.5719 48.2344 17.4541C50.9338 16.3341 53.9066 16.3363 56.6059 17.4519C57.8813 17.9813 59.0209 18.7272 59.99 19.6547C61.6875 15.8134 65.5353 13.125 70 13.125C74.4647 13.125 78.3125 15.8134 80.01 19.6547C80.9769 18.7272 82.1188 17.9813 83.3941 17.4519C86.0934 16.3363 89.0663 16.3341 91.7656 17.4541C94.4628 18.5719 96.565 20.6741 97.685 23.3713C98.2122 24.6466 98.49 25.9809 98.5206 27.3219C102.445 25.8081 107.063 26.6306 110.217 29.7828C113.374 32.9394 114.194 37.5616 112.678 41.4794C114.017 41.51 115.353 41.7878 116.629 42.315C119.326 43.435 121.428 45.5372 122.546 48.2344C123.666 50.9338 123.666 53.9066 122.548 56.6059C122.019 57.8813 121.273 59.0209 120.345 59.99C124.187 61.6875 126.875 65.5353 126.875 70C126.875 74.4647 124.187 78.3125 120.345 80.01C121.273 80.9769 122.019 82.1188 122.548 83.3941C123.666 86.0934 123.666 89.0663 122.546 91.7656C121.428 94.4628 119.326 96.565 116.629 97.685C115.353 98.2122 114.019 98.49 112.678 98.5206C114.194 102.438 113.374 107.058 110.217 110.217C107.065 113.369 102.445 114.196 98.5206 112.676C98.49 114.015 98.2122 115.353 97.685 116.629C96.565 119.326 94.4628 121.428 91.7656 122.546C87.6378 124.257 83.055 123.244 80.0122 120.339C78.3169 124.184 74.4669 126.875 70 126.875ZM59.2288 113.153L63.4375 113.988V115.938C63.4375 119.556 66.3819 122.5 70 122.5C73.6181 122.5 76.5625 119.556 76.5625 115.938V113.988L80.7712 113.151L81.5172 114.951C82.9041 118.293 86.7519 119.893 90.0922 118.501C91.7109 117.83 92.9731 116.57 93.6425 114.951C94.3141 113.332 94.3141 111.547 93.6425 109.928L92.8966 108.128L96.4644 105.744L97.8425 107.122C100.404 109.679 104.567 109.675 107.124 107.122C109.683 104.562 109.683 100.4 107.124 97.8403L105.746 96.4622L108.13 92.8944L109.931 93.6403C111.549 94.3119 113.334 94.3119 114.953 93.6403C116.572 92.9709 117.832 91.7087 118.503 90.09C119.888 86.7475 118.296 82.8997 114.953 81.515L113.153 80.7691L113.988 76.5625H115.938C119.556 76.5625 122.5 73.6181 122.5 70C122.5 66.3819 119.556 63.4375 115.938 63.4375H113.988L113.151 59.2288L114.951 58.4828C118.293 57.0981 119.886 53.2503 118.501 49.9078C117.83 48.2891 116.57 47.0269 114.951 46.3575C113.332 45.6859 111.547 45.6859 109.928 46.3575L108.128 47.1034L105.744 43.5356L107.122 42.1575C109.681 39.5981 109.681 35.4353 107.122 32.8759C104.565 30.3188 100.402 30.3144 97.8403 32.8759L96.4622 34.2541L92.8944 31.8697L93.6403 30.0694C94.3119 28.4506 94.3119 26.6656 93.6403 25.0469C92.9709 23.4281 91.7087 22.1681 90.09 21.4966C86.7475 20.1097 82.9019 21.7022 81.515 25.0469L80.7691 26.8472L76.5625 26.0116V24.0625C76.5625 20.4444 73.6181 17.5 70 17.5C66.3819 17.5 63.4375 20.4444 63.4375 24.0625V26.0116L59.2288 26.8494L58.4828 25.0491C57.0981 21.7044 53.2481 20.1141 49.9078 21.4987C48.2891 22.1703 47.0269 23.4303 46.3575 25.0491C45.6859 26.6678 45.6859 28.4528 46.3575 30.0716L47.1034 31.8719L43.5356 34.2563L42.1575 32.8781C39.5981 30.3166 35.4353 30.3209 32.8759 32.8781C30.3166 35.4375 30.3166 39.6003 32.8759 42.1597L34.2541 43.5378L31.8697 47.1056L30.0694 46.3597C28.4506 45.6881 26.6656 45.6881 25.0469 46.3597C23.4281 47.0291 22.1681 48.2912 21.4966 49.91C20.1119 53.2525 21.7044 57.1003 25.0469 58.485L26.8472 59.2309L26.0116 63.4375H24.0625C20.4444 63.4375 17.5 66.3819 17.5 70C17.5 73.6181 20.4444 76.5625 24.0625 76.5625H26.0116L26.8494 80.7712L25.0491 81.5172C21.7066 82.9019 20.1141 86.7497 21.4987 90.0922C22.1703 91.7109 23.4303 92.9731 25.0491 93.6425C26.6678 94.3141 28.4528 94.3141 30.0716 93.6425L31.8719 92.8966L34.2563 96.4644L32.8781 97.8425C30.3188 100.402 30.3188 104.565 32.8781 107.124C35.4375 109.681 39.6003 109.677 42.1597 107.124L43.5378 105.746L47.1056 108.13L46.3597 109.931C45.6881 111.549 45.6881 113.334 46.3597 114.953C47.0291 116.572 48.2912 117.832 49.91 118.503C53.2438 119.888 57.0981 118.296 58.485 114.953L59.2288 113.153Z" fill="url(#paint0_linear_1_168)"/>
<path d="M62.2059 89.0356C59.9637 89.0356 57.7193 88.1824 56.0131 86.474L45.3665 75.8274C43.6581 74.119 43.6581 71.3496 45.3665 69.6412C47.075 67.9327 49.8443 67.9327 51.5528 69.6412L59.1062 77.1946C60.8147 78.9031 63.584 78.9031 65.2925 77.1946L88.445 54.0531C90.1534 52.3446 92.9228 52.3446 94.6312 54.0531C96.3397 55.7615 96.3397 58.5309 94.6312 60.2393L68.3987 86.474C66.6925 88.1824 64.4481 89.0356 62.2059 89.0356Z" fill="url(#paint1_linear_1_168)"/>
<defs>
<linearGradient id="paint0_linear_1_168" x1="70" y1="10.9375" x2="70" y2="129.021" gradientUnits="userSpaceOnUse">
<stop stop-color="#1A6DFF"/>
<stop offset="1" stop-color="#C822FF"/>
</linearGradient>
<linearGradient id="paint1_linear_1_168" x1="70" y1="47.7596" x2="70" y2="96.4468" gradientUnits="userSpaceOnUse">
<stop stop-color="#6DC7FF"/>
<stop offset="1" stop-color="#E6ABFF"/>
</linearGradient>
</defs>
</svg>
